<?xml version="1.0" encoding="UTF-8" standalone="no"?>
<svg
   xmlns:dc="http://purl.org/dc/elements/1.1/"
   xmlns:cc="http://creativecommons.org/ns#"
   xmlns:rdf="http://www.w3.org/1999/02/22-rdf-syntax-ns#"
   xmlns:svg="http://www.w3.org/2000/svg"
   xmlns="http://www.w3.org/2000/svg"
   xmlns:sodipodi="http://sodipodi.sourceforge.net/DTD/sodipodi-0.dtd"
   xmlns:inkscape="http://www.inkscape.org/namespaces/inkscape"
   viewBox="0 0 475 210"
   version="1.1"
   id="svg4585"
   sodipodi:docname="feedpushr.svg"
   inkscape:version="0.92.1 r15371">
  <metadata
     id="metadata4589">
    <rdf:RDF>
      <cc:Work
         rdf:about="">
        <dc:format>image/svg+xml</dc:format>
        <dc:type
           rdf:resource="http://purl.org/dc/dcmitype/StillImage" />
        <dc:title>integration-tile</dc:title>
      </cc:Work>
    </rdf:RDF>
  </metadata>
  <sodipodi:namedview
     pagecolor="#ffffff"
     bordercolor="#666666"
     borderopacity="1"
     objecttolerance="10"
     gridtolerance="10"
     guidetolerance="10"
     inkscape:pageopacity="0"
     inkscape:pageshadow="2"
     inkscape:window-width="1920"
     inkscape:window-height="922"
     id="namedview4587"
     showgrid="false"
     inkscape:zoom="2.0855928"
     inkscape:cx="240.06234"
     inkscape:cy="137.02891"
     inkscape:window-x="0"
     inkscape:window-y="31"
     inkscape:window-maximized="1"
     inkscape:current-layer="svg4585" />
  <defs
     id="defs4559">
    <style
       id="style4557">.a{fill:#c73a63;}.b{fill:#4b4b4b;}.c{fill:#4a4a4a;}</style>
  </defs>
  <title
     id="title4561">integration-tile</title>
  <g
     aria-label="feed"
     style="font-style:normal;font-weight:normal;font-size:40px;line-height:125%;font-family:Sans;letter-spacing:0px;word-spacing:0px;fill:#ff9955;fill-opacity:1;stroke:none;stroke-width:1px;stroke-linecap:butt;stroke-linejoin:miter;stroke-opacity:1"
     id="text4711">
    <path
       d="m 195.71904,95.931587 v 1.914063 h 6.71875 v 4.39453 h -6.71875 v 17.48047 h -5.72266 v -17.48047 h -5.3125 v -4.39453 h 5.3125 v -1.523438 q 0,-3.945312 1.64063,-5.46875 1.64062,-1.523437 6.09375,-1.523437 h 4.70703 v 4.394531 h -4.47266 q -1.28906,0 -1.75781,0.46875 -0.44922,0.46875 -0.48828,1.738281 z"
       style="font-style:normal;font-variant:normal;font-weight:bold;font-stretch:normal;font-size:40px;font-family:monospace;-inkscape-font-specification:'monospace, Bold';font-variant-ligatures:normal;font-variant-caps:normal;font-variant-numeric:normal;font-feature-settings:normal;text-align:start;writing-mode:lr-tb;text-anchor:start;fill:#ff9955"
       id="path4721" />
    <path
       d="m 226.87138,118.64643 q -1.99218,0.82031 -4.0625,1.23047 -2.07031,0.41016 -4.375,0.41016 -5.48828,0 -8.39843,-2.92969 -2.89063,-2.94922 -2.89063,-8.47656 0,-5.35157 2.79297,-8.45704 2.79297,-3.105464 7.61719,-3.105464 4.86328,0 7.53906,2.890624 2.69531,2.87109 2.69531,8.10547 v 2.32422 h -14.82422 q 0.0195,2.57812 1.52344,3.84765 1.50391,1.26954 4.49219,1.26954 1.97265,0 3.88672,-0.56641 1.91406,-0.56641 4.0039,-1.79688 z m -4.84375,-12.30469 q -0.0391,-2.26562 -1.17187,-3.41797 -1.11328,-1.17187 -3.30078,-1.17187 -1.97266,0 -3.14453,1.21094 -1.17188,1.1914 -1.38672,3.39843 z"
       style="font-style:normal;font-variant:normal;font-weight:bold;font-stretch:normal;font-size:40px;font-family:monospace;-inkscape-font-specification:'monospace, Bold';font-variant-ligatures:normal;font-variant-caps:normal;font-variant-numeric:normal;font-feature-settings:normal;text-align:start;writing-mode:lr-tb;text-anchor:start;fill:#ff9955"
       id="path4723" />
    <path
       d="m 250.93388,118.64643 q -1.99218,0.82031 -4.0625,1.23047 -2.07031,0.41016 -4.375,0.41016 -5.48828,0 -8.39843,-2.92969 -2.89063,-2.94922 -2.89063,-8.47656 0,-5.35157 2.79297,-8.45704 2.79297,-3.105464 7.61719,-3.105464 4.86328,0 7.53906,2.890624 2.69531,2.87109 2.69531,8.10547 v 2.32422 h -14.82422 q 0.0195,2.57812 1.52344,3.84765 1.50391,1.26954 4.49219,1.26954 1.97265,0 3.88672,-0.56641 1.91406,-0.56641 4.0039,-1.79688 z m -4.84375,-12.30469 q -0.0391,-2.26562 -1.17187,-3.41797 -1.11328,-1.17187 -3.30078,-1.17187 -1.97266,0 -3.14453,1.21094 -1.17188,1.1914 -1.38672,3.39843 z"
       style="font-style:normal;font-variant:normal;font-weight:bold;font-stretch:normal;font-size:40px;font-family:monospace;-inkscape-font-specification:'monospace, Bold';font-variant-ligatures:normal;font-variant-caps:normal;font-variant-numeric:normal;font-feature-settings:normal;text-align:start;writing-mode:lr-tb;text-anchor:start;fill:#ff9955"
       id="path4725" />
    <path
       d="M 268.92216,100.95112 V 89.330025 h 5.70313 v 30.390625 h -5.70313 v -3.24219 q -0.91796,1.89453 -2.38281,2.85156 -1.44531,0.95704 -3.41797,0.95704 -3.75,0 -5.82031,-3.00782 -2.07031,-3.00781 -2.07031,-8.47656 0,-5.54687 2.08984,-8.51562 2.10938,-2.968754 5.9961,-2.968754 1.75781,0 3.14453,0.917969 1.40625,0.898437 2.46093,2.714845 z m -7.96875,7.89062 q 0,3.16407 1.05469,4.96094 1.05469,1.79688 2.91016,1.79688 1.85547,0 2.92969,-1.79688 1.07421,-1.79687 1.07421,-4.96094 0,-3.16406 -1.07421,-4.96093 -1.07422,-1.79688 -2.92969,-1.79688 -1.85547,0 -2.91016,1.79688 -1.05469,1.79687 -1.05469,4.96093 z"
       style="font-style:normal;font-variant:normal;font-weight:bold;font-stretch:normal;font-size:40px;font-family:monospace;-inkscape-font-specification:'monospace, Bold';font-variant-ligatures:normal;font-variant-caps:normal;font-variant-numeric:normal;font-feature-settings:normal;text-align:start;writing-mode:lr-tb;text-anchor:start;fill:#ff9955"
       id="path4727" />
  </g>
  <g
     transform="matrix(1.5628173,0,0,1.5628173,59.619772,27.43216)"
     id="g4181">
    <g
       id="g4149"
       transform="matrix(0.36866904,0,0,0.36866904,41.460542,22.143699)">
      <ellipse
         style="fill:#ff9955"
         id="ellipse4137"
         ry="13.714"
         rx="13.566"
         cy="86.286003"
         cx="13.566" />
      <path
         style="fill:#ff9955"
         id="path4139"
         d="M 65.569,100 H 46.35 C 46.35,74.121 25.598,53.142 0,53.142 v 0 -19.427 c 36.214,0 65.569,29.676 65.569,66.285 z"
         inkscape:connector-curvature="0" />
      <path
         style="fill:#ff9955"
         id="path4141"
         d="M 79.135,100 C 79.135,55.817 43.706,20 0,20 V 0 c 54.631,0 98.918,44.772 98.918,100 z"
         inkscape:connector-curvature="0" />
    </g>
    <path
       inkscape:connector-curvature="0"
       d="m 27.290604,48.897488 h 7.08545 c 0,9.540786 7.65062,17.275094 17.08781,17.275094 v 0 7.162133 c -13.350981,0 -24.17326,-10.940622 -24.17326,-24.437227 z"
       id="path4139-6"
       style="fill:#5599ff" />
    <path
       inkscape:connector-curvature="0"
       d="m 22.637545,48.624511 c -0.153321,16.288184 12.783386,29.615161 28.895722,29.766827 l -0.0694,7.373054 C 31.323998,85.574815 15.15284,68.915814 15.344488,48.555865 l 7.293057,0.06865 z"
       id="path4141-0"
       style="fill:#5599ff" />
  </g>
  <g
     aria-label="pushr"
     style="font-style:normal;font-weight:normal;font-size:40px;line-height:125%;font-family:Sans;letter-spacing:0px;word-spacing:0px;fill:#5599ff;fill-opacity:1;stroke:none;stroke-width:1px;stroke-linecap:butt;stroke-linejoin:miter;stroke-opacity:1"
     id="text4719">
    <path
       d="m 283.24191,116.72115 v 11.40625 h -5.70312 V 97.932083 h 5.70312 v 3.281247 q 0.89844,-1.894528 2.36328,-2.851559 1.46485,-0.957032 3.4375,-0.957032 3.75,0 5.82032,3.007811 2.07031,3.00781 2.07031,8.47656 0,5.54688 -2.10938,8.51563 -2.08984,2.96875 -5.97656,2.96875 -1.75781,0 -3.16406,-0.89844 -1.38672,-0.91797 -2.44141,-2.7539 z m 7.96875,-7.8711 q 0,-3.16406 -1.05468,-4.96094 -1.05469,-1.79687 -2.91016,-1.79687 -1.85547,0 -2.92969,1.79687 -1.07422,1.79688 -1.07422,4.96094 0,3.16406 1.07422,4.96094 1.07422,1.79687 2.92969,1.79687 1.85547,0 2.91016,-1.79687 1.05468,-1.79688 1.05468,-4.96094 z"
       style="font-style:normal;font-variant:normal;font-weight:bold;font-stretch:normal;font-size:40px;font-family:monospace;-inkscape-font-specification:'monospace, Bold';font-variant-ligatures:normal;font-variant-caps:normal;font-variant-numeric:normal;font-feature-settings:normal;text-align:start;writing-mode:lr-tb;text-anchor:start;fill:#5599ff"
       id="path4730" />
    <path
       d="M 301.7966,112.17036 V 97.932083 h 5.72266 v 13.359377 q 0,2.36328 0.66406,3.3789 0.66406,1.01563 2.20703,1.01563 1.54297,0 2.40234,-1.36719 0.87891,-1.36719 0.87891,-3.82812 V 97.932083 h 5.72266 v 21.874997 h -5.72266 v -3.24218 q -0.60547,1.8164 -2.07031,2.8125 -1.44531,0.99609 -3.4961,0.99609 -3.125,0 -4.72656,-2.07031 -1.58203,-2.07032 -1.58203,-6.13282 z"
       style="font-style:normal;font-variant:normal;font-weight:bold;font-stretch:normal;font-size:40px;font-family:monospace;-inkscape-font-specification:'monospace, Bold';font-variant-ligatures:normal;font-variant-caps:normal;font-variant-numeric:normal;font-feature-settings:normal;text-align:start;writing-mode:lr-tb;text-anchor:start;fill:#5599ff"
       id="path4732" />
    <path
       d="m 342.08957,98.615677 v 5.000003 q -1.58203,-1.01563 -3.30078,-1.52344 -1.69922,-0.52734 -3.41797,-0.52734 -1.91406,0 -2.89063,0.5664 -0.97656,0.54688 -0.97656,1.64063 0,1.5625 4.17969,2.53906 l 0.21484,0.0586 1.64063,0.39063 q 3.125,0.74219 4.57031,2.40234 1.46484,1.64063 1.46484,4.45313 0,3.3789 -2.22656,5.07812 -2.20703,1.67969 -6.66015,1.67969 -1.97266,0 -4.04297,-0.35156 -2.07032,-0.33203 -4.19922,-1.01563 v -5 q 1.89453,1.07422 3.84765,1.64063 1.97266,0.5664 3.8086,0.5664 2.01172,0 3.04687,-0.58593 1.03516,-0.58594 1.03516,-1.69922 0,-1.09375 -0.74219,-1.67969 -0.72265,-0.58594 -3.47656,-1.25 l -1.58203,-0.35156 q -3.28125,-0.74219 -4.78516,-2.32422 -1.5039,-1.58203 -1.5039,-4.23828 0,-3.16407 2.28515,-4.921878 2.28516,-1.757813 6.42578,-1.757813 1.85547,0 3.69141,0.3125 1.85547,0.292969 3.59375,0.898438 z"
       style="font-style:normal;font-variant:normal;font-weight:bold;font-stretch:normal;font-size:40px;font-family:monospace;-inkscape-font-specification:'monospace, Bold';font-variant-ligatures:normal;font-variant-caps:normal;font-variant-numeric:normal;font-feature-settings:normal;text-align:start;writing-mode:lr-tb;text-anchor:start;fill:#5599ff"
       id="path4734" />
    <path
       d="m 367.71457,105.60786 v 14.19922 h -5.68359 v -13.32031 q 0,-2.36328 -0.6836,-3.37891 -0.66406,-1.01562 -2.1875,-1.01562 -1.5625,0 -2.4414,1.38672 -0.87891,1.36719 -0.87891,3.80859 v 12.51953 h -5.68359 V 89.416458 h 5.68359 v 11.796872 q 0.60547,-1.816403 2.07031,-2.812497 1.46485,-0.996094 3.53516,-0.996094 3.10547,0 4.6875,2.070313 1.58203,2.050778 1.58203,6.132808 z"
       style="font-style:normal;font-variant:normal;font-weight:bold;font-stretch:normal;font-size:40px;font-family:monospace;-inkscape-font-specification:'monospace, Bold';font-variant-ligatures:normal;font-variant-caps:normal;font-variant-numeric:normal;font-feature-settings:normal;text-align:start;writing-mode:lr-tb;text-anchor:start;fill:#5599ff"
       id="path4736" />
    <path
       d="m 393.33957,103.96724 q -0.9375,-0.85938 -2.20703,-1.28906 -1.25,-0.42969 -2.75391,-0.42969 -1.8164,0 -3.18359,0.64453 -1.34766,0.625 -2.08985,1.83594 -0.46875,0.74219 -0.66406,1.79687 -0.17578,1.05469 -0.17578,3.20313 v 10.07812 h -5.72266 V 97.932083 h 5.72266 v 3.398437 q 0.83984,-1.874999 2.57813,-2.890624 1.73828,-1.035157 4.0625,-1.035157 1.17187,0 2.28515,0.292969 1.13281,0.273438 2.14844,0.820313 z"
       style="font-style:normal;font-variant:normal;font-weight:bold;font-stretch:normal;font-size:40px;font-family:monospace;-inkscape-font-specification:'monospace, Bold';font-variant-ligatures:normal;font-variant-caps:normal;font-variant-numeric:normal;font-feature-settings:normal;text-align:start;writing-mode:lr-tb;text-anchor:start;fill:#5599ff"
       id="path4738" />
  </g>
</svg>
